<svg xmlns="http://www.w3.org/2000/svg" xmlns:xlink="http://www.w3.org/1999/xlink" viewBox="0 0 34.27 24.85"><defs><style>.cls-1{isolation:isolate;}.cls-2{fill:#db2e2e;}.cls-3{fill:#fff;}.cls-4{fill:#2e4593;}.cls-5{mix-blend-mode:multiply;}.cls-5,.cls-6{fill:url(#linear-gradient);}.cls-6{mix-blend-mode:overlay;opacity:0.25;}</style><linearGradient id="linear-gradient" x1="0.09" y1="12.32" x2="34.22" y2="12.32" gradientUnits="userSpaceOnUse"><stop offset="0" stop-color="#fff"/><stop offset="0.13" stop-color="#f7f7f7"/><stop offset="0.34" stop-color="#e0e0e1"/><stop offset="0.54" stop-color="#c4c5c6"/><stop offset="0.57" stop-color="#c1c2c3"/><stop offset="0.69" stop-color="#bebfc0"/><stop offset="0.91" stop-color="#fff"/></linearGradient></defs><g class="cls-1"><g id="Layer_2" data-name="Layer 2"><g id="Capa_1" data-name="Capa 1"><path class="cls-2" d="M34.27,10C22.84,3.63,11.42,16.34,0,10V8.35c11.42,6.36,22.84-6.35,34.27,0Z"/><path class="cls-2" d="M34.27,6.73C22.84.37,11.42,13.08,0,6.73V5.09c11.42,6.36,22.84-6.35,34.27,0Z"/><path class="cls-2" d="M34.27,3.47C22.84-2.89,11.42,9.82,0,3.47V1.83c11.42,6.36,22.84-6.35,34.27,0Z"/><path class="cls-2" d="M34.27,13.25C22.84,6.89,11.42,19.6,0,13.25V11.61c11.42,6.36,22.84-6.35,34.27,0Z"/><path class="cls-2" d="M34.27,16.5C22.84,10.15,11.42,22.86,0,16.5V14.87c11.42,6.36,22.84-6.35,34.27,0Z"/><path class="cls-2" d="M34.27,19.76c-11.43-6.35-22.85,6.36-34.27,0V18.13c11.42,6.36,22.84-6.35,34.27,0Z"/><path class="cls-2" d="M34.27,23C22.84,16.66,11.42,29.37,0,23V21.39c11.42,6.35,22.84-6.36,34.27,0Z"/><path class="cls-3" d="M34.27,8.36C22.84,2,11.42,14.71,0,8.36V6.72c11.42,6.36,22.84-6.35,34.27,0Z"/><path class="cls-3" d="M34.27,5.1C22.84-1.26,11.42,11.45,0,5.1V3.47c11.42,6.35,22.84-6.36,34.27,0Z"/><path class="cls-3" d="M34.27,11.62C22.84,5.26,11.42,18,0,11.62V10c11.42,6.35,22.84-6.36,34.27,0Z"/><path class="cls-3" d="M34.27,14.87C22.84,8.52,11.42,21.23,0,14.87V13.24c11.42,6.36,22.84-6.36,34.27,0Z"/><path class="cls-3" d="M34.27,18.13c-11.43-6.35-22.85,6.36-34.27,0V16.5c11.42,6.36,22.84-6.35,34.27,0Z"/><path class="cls-3" d="M34.27,21.39C22.84,15,11.42,27.75,0,21.39V19.76c11.42,6.36,22.84-6.35,34.27,0Z"/><path class="cls-4" d="M12.81,3C8.54,4,4.27,4.26,0,1.89v9.86c4.27,2.38,8.54,2.09,12.81,1.13Z"/><path class="cls-3" d="M10.71,5.38l.13.36-.32-.18h0l-.32.28c0-.13.09-.26.13-.4h0L10,5.26l.4-.06c0-.13.07-.26.11-.4l.12.37h0L11,5.1l-.33.28Z"/><path class="cls-3" d="M10.71,7.38l.13.36a3.37,3.37,0,0,0-.32-.19h0l-.32.29c0-.14.09-.27.13-.41h0L10,7.25l.4,0c0-.14.07-.27.11-.4l.12.36h0L11,7.09l-.33.28h0Z"/><path class="cls-3" d="M10.71,9.37l.13.36-.32-.19h0l-.32.29.13-.4h0L10,9.25l.4-.06c0-.13.07-.27.11-.4l.12.36h0L11,9.09l-.33.28Z"/><path class="cls-3" d="M10.71,11.36l.13.36-.32-.19h0l-.32.28.13-.4h0L10,11.24l.4-.06c0-.13.07-.26.11-.4l.12.37h0l.41-.07-.33.28Z"/><path class="cls-3" d="M8.59,5.63,8.72,6a3.62,3.62,0,0,0-.32-.22h0l-.32.26c0-.13.09-.26.13-.39h0l-.33-.21h.4c0-.14.07-.27.11-.4,0,.13.08.25.13.38h0l.4,0-.33.25h0Z"/><path class="cls-3" d="M8.59,7.63c0,.12.09.24.13.37L8.4,7.78h0L8.08,8c0-.13.09-.26.13-.39h0l-.33-.21.4,0c0-.13.07-.26.11-.39,0,.12.08.25.13.37h0l.4,0-.33.25h0Z"/><path class="cls-3" d="M8.59,9.62l.13.37L8.4,9.77h0L8.08,10c0-.13.09-.26.13-.39h0l-.33-.21.4,0c0-.13.07-.26.11-.39,0,.13.08.25.13.38h0l.4,0-.33.25h0Z"/><path class="cls-3" d="M8.59,11.61c0,.13.09.25.13.37l-.32-.21h0L8.08,12c0-.12.09-.25.13-.38h0l-.33-.21h.4c0-.14.07-.27.11-.4,0,.13.08.25.13.38h0l.4,0-.33.25h0Z"/><path class="cls-3" d="M6.47,5.66c0,.13.09.26.14.39L6.28,5.8h0L6,6c0-.13.09-.25.13-.38h0l-.33-.25.4,0L6.27,5l.12.39h0l.4,0-.33.21h0Z"/><path class="cls-3" d="M6.47,7.66c0,.13.09.26.14.39l-.33-.26h0L6,8c0-.13.09-.25.13-.37h0l-.33-.25.4,0c0-.12.07-.25.11-.37l.12.39H6.8l-.33.22h0Z"/><path class="cls-3" d="M6.47,9.65c0,.13.09.26.14.39l-.33-.26h0L6,10l.13-.37h0l-.33-.25.4,0L6.27,9l.12.39h0l.4,0-.33.21h0Z"/><path class="cls-3" d="M6.47,11.64c0,.13.09.26.14.39l-.33-.25h0L6,12c0-.12.09-.24.13-.37h0l-.33-.25.4,0L6.27,11l.12.39h0l.4,0-.33.21h0Z"/><path class="cls-3" d="M4.38,5.43c0,.14.1.27.14.41l-.32-.3h0l-.33.17c0-.12.09-.24.14-.35H4l-.34-.3.41.09c0-.12.07-.24.11-.36l.12.41h0l.41.07-.34.17Z"/><path class="cls-3" d="M4.38,7.42c0,.14.1.27.14.41l-.32-.3h0l-.33.17L4,7.35H4l-.34-.3.41.09c0-.12.07-.25.11-.37l.12.41h0l.41.07-.34.17Z"/><path class="cls-3" d="M4.38,9.42c0,.13.1.27.14.4l-.32-.3h0l-.33.17c0-.11.09-.23.14-.35H4L3.67,9l.41.09c0-.12.07-.24.11-.36l.12.41h0l.41.07-.34.16h0Z"/><path class="cls-3" d="M4.38,11.41c0,.14.1.27.14.41l-.32-.3h0l-.33.17c0-.12.09-.24.14-.35H4L3.67,11l.41.09c0-.12.07-.24.11-.36l.12.41h0l.41.07-.34.17Z"/><path class="cls-3" d="M2.3,4.88l.13.43c-.1-.12-.21-.24-.32-.35h0l-.32.12.13-.33h0l-.33-.36.4.16c0-.11.07-.23.11-.34l.12.43h0l.41.13-.33.12h0Z"/><path class="cls-3" d="M2.3,6.87c0,.15.09.29.13.43L2.11,7h0l-.32.12.13-.33h0l-.33-.36.4.15c0-.11.07-.22.11-.34l.12.43h0l.41.14-.33.11h0Z"/><path class="cls-3" d="M2.3,8.87c0,.14.09.28.13.42l-.32-.35h0l-.32.12.13-.33h0l-.33-.36.4.16.11-.35.12.43h0l.41.14-.33.11h0Z"/><path class="cls-3" d="M2.3,10.86l.13.43c-.1-.12-.21-.24-.32-.35h0l-.32.11.13-.33h0l-.33-.36.4.16c0-.11.07-.23.11-.34l.12.43h0l.41.13-.33.12h0Z"/><path class="cls-3" d="M11.74,6.2c0,.11.09.23.13.35l-.32-.18h0l-.33.3c0-.13.09-.27.14-.4h0L11,6.1l.4-.07c0-.14.07-.27.11-.41l.12.36h0l.41-.08c-.11.1-.22.2-.34.29h0Z"/><path class="cls-3" d="M11.74,8.19c0,.12.09.24.13.35l-.32-.17h0l-.33.3.14-.41h0L11,8.09l.4-.07c0-.14.07-.27.11-.41l.12.37h0l.41-.09-.34.3h0Z"/><path class="cls-3" d="M11.74,10.18l.13.36-.32-.18h0l-.33.3c0-.13.09-.27.14-.4h0L11,10.09l.4-.07c0-.14.07-.28.11-.41l.12.36h0l.41-.08c-.11.1-.22.2-.34.29h0Z"/><path class="cls-3" d="M11.74,12.18c0,.12.09.24.13.35l-.32-.17h0l-.33.3.14-.41h0L11,12.08l.4-.07c0-.13.07-.27.11-.4l.12.36h0l.41-.08-.34.29h0Z"/><path class="cls-3" d="M11.74,4.21l.13.36-.32-.18h0l-.33.3.14-.41h0L11,4.11l.4-.07c0-.13.07-.27.11-.4l.12.36h0l.41-.08-.34.29h0Z"/><path class="cls-3" d="M9.66,6.53l.14.36-.33-.2h0L9.15,7l.14-.39h0L9,6.37l.41,0c0-.13.07-.26.11-.39l.12.37h0L10,6.25l-.34.27h0Z"/><path class="cls-3" d="M9.66,8.52l.14.36-.33-.2h0L9.15,9c0-.14.09-.27.14-.4h0L9,8.36l.41,0c0-.14.07-.27.11-.4l.12.37h0L10,8.25l-.34.27Z"/><path class="cls-3" d="M9.66,10.51c.05.13.09.25.14.37l-.33-.2h0L9.15,11l.14-.39h0L9,10.36l.41,0c0-.13.07-.26.11-.39l.12.36h0l.41-.06-.34.27Z"/><path class="cls-3" d="M9.66,12.51c.05.12.09.24.14.37l-.33-.2h0L9.15,13c0-.13.09-.26.14-.4h0L9,12.36l.41,0c0-.13.07-.27.11-.4l.12.37h0l.41,0-.34.27Z"/><path class="cls-3" d="M9.66,4.54c.05.12.09.24.14.37l-.33-.2h0L9.15,5c0-.13.09-.26.14-.4h0L9,4.39l.41,0c0-.13.07-.27.11-.4l.12.37h0L10,4.27l-.34.27Z"/><path class="cls-3" d="M7.51,6.68l.13.37-.32-.23h0L7,7.06l.13-.38h0L6.8,6.44h.4c0-.13.07-.26.11-.38l.12.38h.41l-.33.23h0Z"/><path class="cls-3" d="M7.51,8.67c0,.13.09.25.13.38l-.32-.24h0L7,9.05c0-.13.09-.25.13-.38h0L6.8,8.44h.4l.11-.38.12.38h.41l-.33.24h0Z"/><path class="cls-3" d="M7.51,10.66c0,.13.09.26.13.38l-.32-.23h0L7,11.05l.13-.38h0l-.33-.23h.4c0-.13.07-.26.11-.39l.12.39h.41l-.33.23h0Z"/><path class="cls-3" d="M7.51,12.66c0,.13.09.25.13.38l-.32-.23h0L7,13l.13-.38h0l-.33-.23h.4c0-.13.07-.26.11-.39l.12.38h.41l-.33.24h0Z"/><path class="cls-3" d="M7.51,4.69c0,.13.09.25.13.38l-.32-.24h0L7,5.07l.13-.38h0L6.8,4.46h.4l.11-.38.12.38h.41l-.33.24h0Z"/><path class="cls-3" d="M5.4,6.58,5.54,7,5.21,6.7h0l-.32.19L5,6.53H5l-.33-.28.4.06c0-.12.08-.25.11-.37l.13.4h0l.4,0-.33.19h0Z"/><path class="cls-3" d="M5.4,8.57c0,.13.09.26.14.4l-.33-.28h0l-.32.19L5,8.52H5l-.33-.28.4.06c0-.12.08-.24.11-.37,0,.14.09.27.13.4h0l.4.05-.33.19Z"/><path class="cls-3" d="M5.4,10.57l.14.39-.33-.28h0l-.32.2L5,10.52H5l-.33-.28.4.06c0-.12.08-.25.11-.37l.13.4h0l.4,0-.33.19h0Z"/><path class="cls-3" d="M5.4,12.56c0,.13.09.27.14.4l-.33-.28h0l-.32.2L5,12.51H5l-.33-.27.4.06c0-.13.08-.25.11-.37l.13.39h0l.4,0-.33.19Z"/><path class="cls-3" d="M5.4,4.59c0,.13.09.27.14.4l-.33-.28h0l-.32.2L5,4.54H5l-.33-.27.4.05c0-.12.08-.24.11-.36l.13.39h0l.4.05-.33.19Z"/><path class="cls-3" d="M3.34,6.19c0,.14.09.28.13.42l-.32-.33h0l-.33.15c.05-.11.09-.23.14-.34H3l-.33-.32.4.12c0-.12.07-.24.11-.35l.12.41h0l.41.1-.34.14h0Z"/><path class="cls-3" d="M3.34,8.19l.13.41-.32-.32h0l-.33.14c.05-.11.09-.22.14-.34H3l-.33-.33.4.12.11-.35.12.42h0l.41.1-.34.14h0Z"/><path class="cls-3" d="M3.34,10.18c0,.14.09.28.13.42l-.32-.33h0l-.33.15c.05-.12.09-.23.14-.34H3l-.33-.32.4.12c0-.12.07-.24.11-.35l.12.41h0l.41.11-.34.14h0Z"/><path class="cls-3" d="M3.34,12.18c0,.14.09.28.13.41l-.32-.32h0l-.33.14c.05-.11.09-.22.14-.34H3l-.33-.33a2.64,2.64,0,0,0,.4.12c0-.11.07-.23.11-.35l.12.42h0l.41.1-.34.14h0Z"/><path class="cls-3" d="M3.34,4.21c0,.14.09.28.13.41L3.15,4.3h0l-.33.14c.05-.11.09-.22.14-.34H3l-.33-.33a2.64,2.64,0,0,0,.4.12c0-.11.07-.23.11-.35L3.26,4h0l.41.1-.34.14h0Z"/><path class="cls-3" d="M1.24,5.46c0,.15.09.29.13.44-.1-.13-.21-.25-.32-.38h0L.73,5.6l.13-.31h0Q.7,5.1.53,4.89l.4.2C1,5,1,4.87,1,4.76l.12.44h0l.41.17-.33.08h0Z"/><path class="cls-3" d="M1.24,7.45c0,.15.09.3.13.44l-.32-.38h0L.73,7.6c0-.11.09-.21.13-.32h0L.53,6.89l.4.19L1,6.75l.12.44h0l.41.18-.33.08Z"/><path class="cls-3" d="M1.24,9.45c0,.15.09.29.13.44-.1-.13-.21-.26-.32-.38h0l-.32.09.13-.31h0L.53,8.88l.4.2C1,9,1,8.86,1,8.75l.12.44h0l.41.17-.33.09Z"/><path class="cls-3" d="M1.24,11.44c0,.15.09.3.13.45l-.32-.39h0l-.32.09c0-.11.09-.21.13-.32h0l-.33-.39.4.2c0-.11.07-.23.11-.34l.12.44h0l.41.18-.33.08Z"/><path class="cls-3" d="M1.24,3.47c0,.15.09.3.13.45l-.32-.39h0l-.32.09c0-.11.09-.21.13-.32h0L.53,2.91l.4.2C1,3,1,2.88,1,2.77l.12.44h0l.41.18-.33.08Z"/><path class="cls-5" d="M34.22,8.75v7h0v7C22.83,16.51,11.45,29,.09,22.75V1.89c11.36,6.26,22.74-6.24,34.12,0V8.74Z"/><path class="cls-6" d="M34.22,8.75v7h0v7C22.83,16.51,11.45,29,.09,22.75V1.89c11.36,6.26,22.74-6.24,34.12,0V8.74Z"/></g></g></g></svg>