<svg xmlns="http://www.w3.org/2000/svg" xmlns:xlink="http://www.w3.org/1999/xlink" viewBox="0 0 33.64 24.47"><defs><style>.cls-1{isolation:isolate;}.cls-2{fill:#fff;}.cls-3{fill:#266ec4;}.cls-4{mix-blend-mode:multiply;}.cls-4,.cls-5{fill:url(#linear-gradient);}.cls-5{mix-blend-mode:overlay;opacity:0.25;}</style><linearGradient id="linear-gradient" y1="12.23" x2="33.64" y2="12.23" gradientUnits="userSpaceOnUse"><stop offset="0" stop-color="#fff"/><stop offset="0.13" stop-color="#f7f7f7"/><stop offset="0.34" stop-color="#e0e0e1"/><stop offset="0.54" stop-color="#c4c5c6"/><stop offset="0.57" stop-color="#c1c2c3"/><stop offset="0.69" stop-color="#bebfc0"/><stop offset="0.91" stop-color="#fff"/></linearGradient></defs><g class="cls-1"><g id="Layer_2" data-name="Layer 2"><g id="Capa_1" data-name="Capa 1"><path class="cls-2" d="M33.45,1.84V22.61c-11.13-6.23-22.26,6.23-33.39,0V1.84C11.19,8.07,22.32-4.39,33.45,1.84Z"/><path class="cls-3" d="M.06,17.44c11.13,6.23,22.26-6.23,33.39,0v3.33C22.32,14.54,11.19,27,.06,20.77Z"/><path class="cls-3" d="M.06,3.58c11.13,6.23,22.26-6.23,33.39,0V6.91C22.32.68,11.19,13.14.06,6.91Z"/><path class="cls-3" d="M21.29,13.62c-3,.64-5.94,1.65-8.92,2.31,1.5-2.9,3-5.89,4.5-8.87C18.34,9.21,19.82,11.37,21.29,13.62Zm-7.63,1.27c2.12-.53,4.24-1.19,6.36-1.71-1.05-1.58-2.1-3.11-3.16-4.65Z"/><path class="cls-3" d="M16.87,17.31c-1.5-2.15-3-4.3-4.5-6.53,3-.66,6-1.67,8.92-2.32C19.82,11.35,18.34,14.33,16.87,17.31Zm-3.21-6.1c1.06,1.56,2.13,3.09,3.2,4.63C17.92,13.71,19,11.58,20,9.49,17.9,10,15.78,10.68,13.66,11.21Z"/><path class="cls-4" d="M33.64,8.66v7h0v7C22.42,16.42,11.2,28.91,0,22.66V1.8c11.2,6.26,22.42-6.24,33.63,0V8.65Z"/><path class="cls-5" d="M33.64,8.66v7h0v7C22.42,16.42,11.2,28.91,0,22.66V1.8c11.2,6.26,22.42-6.24,33.63,0V8.65Z"/></g></g></g></svg>