<svg xmlns="http://www.w3.org/2000/svg" viewBox="0 0 183.4 160.58"><defs><style>.cls-1{fill:#d6bbea;stroke:#0f1a47;stroke-linecap:round;stroke-linejoin:round;stroke-width:2.05px;}.cls-2{fill:#0f1a47;}.cls-3{font-size:25.96px;letter-spacing:0.15em;}.cls-3,.cls-4,.cls-5,.cls-6{fill:#fff;}.cls-3,.cls-6{font-family:Pesto;}.cls-5{font-size:35.02px;font-family:PerpetuaTitlingMT-Bold, Perpetua Titling MT;font-weight:700;letter-spacing:0.15em;}.cls-6{font-size:23.87px;letter-spacing:0.15em;}</style></defs><g id="Layer_2" data-name="Layer 2"><g id="OBJECTS"><path class="cls-1" d="M178.48,66.88a3.82,3.82,0,0,1-2-.57L103.07,21.63a3.9,3.9,0,0,1-1.87-3.32,9.51,9.51,0,1,0-19,0,3.89,3.89,0,0,1-1.86,3.32L6.94,66.31a3.89,3.89,0,1,1-4.05-6.64L74.57,16a17.28,17.28,0,0,1,34.26,0l71.68,43.64a3.89,3.89,0,0,1-2,7.21Z"/><path class="cls-2" d="M14.54,69c.11,0,2.4.24,6.12.24,15.54,0,56-4,65.89-44.9a.88.88,0,0,0-1.7-.42C72.93,73.09,15.31,67.35,14.73,67.29A.88.88,0,0,0,14.54,69Z"/><path class="cls-2" d="M21.11,63.17h.77c5.94,0,44.29-1.37,58.63-35.8a.88.88,0,0,0-1.62-.67c-15,36-57.29,34.73-57.71,34.71a.87.87,0,0,0-.91.84A.88.88,0,0,0,21.11,63.17Z"/><path class="cls-2" d="M27.65,57.31h.1c.28,0,28-3.21,46.64-26.84A.88.88,0,0,0,73,29.39c-18.14,23-45.18,26.15-45.45,26.18a.87.87,0,0,0,.09,1.74Z"/><path class="cls-2" d="M175.14,73.15c-.35.06-36.46,5.2-60.88-13-12-9-19.29-22.06-21.7-39a.43.43,0,0,1,0,0,.76.76,0,0,0-.06-.16.69.69,0,0,0-.07-.15l-.11-.12-.13-.12-.13-.06-.18-.06-.05,0h-.11s-.09,0-.13,0l-.06,0-.14.05-.17.08-.11.1a.74.74,0,0,0-.12.13l-.07.14a1.15,1.15,0,0,0-.06.17.08.08,0,0,1,0,0c-2.4,16.93-9.69,30-21.69,39C44.72,78.35,8.61,73.21,8.25,73.15A.87.87,0,0,0,8,74.88a94.85,94.85,0,0,0,12.47.73c13,0,33.77-2.18,49.72-14.07C81.38,53.2,88.59,41.35,91.7,26.29,94.81,41.35,102,53.2,113.22,61.54c15.95,11.89,36.68,14.07,49.71,14.07a94.48,94.48,0,0,0,12.47-.73.87.87,0,0,0,.74-1A.88.88,0,0,0,175.14,73.15Z"/><path class="cls-2" d="M162.74,69.27c3.71,0,6-.23,6.12-.24a.88.88,0,0,0-.19-1.74c-.58.06-58.19,5.82-70.12-43.34a.88.88,0,0,0-1.7.42C106.77,65.24,147.2,69.27,162.74,69.27Z"/><path class="cls-2" d="M161.52,63.18h.77a.88.88,0,0,0-.07-1.75c-.43,0-42.71,1.32-57.72-34.71a.87.87,0,1,0-1.61.67C117.23,61.81,155.58,63.18,161.52,63.18Z"/><path class="cls-2" d="M155.65,57.31h.09a.87.87,0,0,0,.09-1.74c-.27,0-27.28-3.12-45.45-26.18a.86.86,0,0,0-1.22-.15.88.88,0,0,0-.15,1.23C127.63,54.1,155.37,57.28,155.65,57.31Z"/><path class="cls-2" d="M172,157.36V74.76S101,83.72,91.7,21.15C85.48,81.73,11.43,74.76,11.43,74.76v82.6"/><text class="cls-3" transform="translate(56.82 82.77)">THE</text><path class="cls-4" d="M36,90.4h4.46v31.95H36Zm2.64,27.8H47.3c2.27,0,3.93-.44,5-1.3a4.49,4.49,0,0,0,1.56-3.65v-.06a6.47,6.47,0,0,0-.56-2.8,3.88,3.88,0,0,0-1.77-1.79,6.84,6.84,0,0,0-3.1-.62H38.65v-4H48.4a5.33,5.33,0,0,0,3.75-1.16,4.48,4.48,0,0,0,1.26-3.45A4.43,4.43,0,0,0,52,95.74a6.44,6.44,0,0,0-4.22-1.19H38.65V90.4h10a11.51,11.51,0,0,1,5.19,1,7.06,7.06,0,0,1,3.12,3,9.79,9.79,0,0,1,1,4.62,7.42,7.42,0,0,1-.64,3.08,6.31,6.31,0,0,1-1.94,2.46A7.34,7.34,0,0,1,52.12,106a7.13,7.13,0,0,1,3.34,1.37,7.3,7.3,0,0,1,2.15,2.71,8.33,8.33,0,0,1,.75,3.52v.07a9,9,0,0,1-1.15,4.57,7.66,7.66,0,0,1-3.27,3,10.86,10.86,0,0,1-5,1.08H38.65Z"/><path class="cls-4" d="M69.08,121.22a10,10,0,0,1-4-4.13,13.2,13.2,0,0,1-1.39-6.19v-9.05a13.17,13.17,0,0,1,1.39-6.19,10,10,0,0,1,4-4.13,12.61,12.61,0,0,1,11.78,0,10,10,0,0,1,3.94,4.13,13.17,13.17,0,0,1,1.4,6.19v9.05a13.2,13.2,0,0,1-1.4,6.19,10,10,0,0,1-3.94,4.13,12.61,12.61,0,0,1-11.78,0Zm9.37-3.85a6,6,0,0,0,2.33-2.53,8.29,8.29,0,0,0,.82-3.79v-9.36a8.32,8.32,0,0,0-.82-3.79,6,6,0,0,0-2.33-2.52,7.27,7.27,0,0,0-7,0,5.9,5.9,0,0,0-2.32,2.52,8.33,8.33,0,0,0-.83,3.79v9.36a8.3,8.3,0,0,0,.83,3.79,5.87,5.87,0,0,0,2.32,2.53,7.27,7.27,0,0,0,7,0Z"/><path class="cls-4" d="M97.25,121.22a10,10,0,0,1-4-4.13,13.2,13.2,0,0,1-1.39-6.19v-9.05a13.17,13.17,0,0,1,1.39-6.19,10,10,0,0,1,4-4.13,12.61,12.61,0,0,1,11.78,0A10.06,10.06,0,0,1,113,95.66a13.17,13.17,0,0,1,1.4,6.19v9.05a13.2,13.2,0,0,1-1.4,6.19,10.06,10.06,0,0,1-3.94,4.13,12.61,12.61,0,0,1-11.78,0Zm9.37-3.85a6,6,0,0,0,2.33-2.53,8.29,8.29,0,0,0,.82-3.79v-9.36A8.32,8.32,0,0,0,109,97.9a6,6,0,0,0-2.33-2.52,7.27,7.27,0,0,0-7,0,6,6,0,0,0-2.33,2.52,8.46,8.46,0,0,0-.82,3.79v9.36a8.43,8.43,0,0,0,.82,3.79,6,6,0,0,0,2.33,2.53,7.27,7.27,0,0,0,7,0Z"/><path class="cls-4" d="M121.18,90.4h4.48v31.95h-4.48Zm3.51,17.93L138.8,90.4h5.51L124,115.05Zm5.32-3,3.54-3.28,12.1,20.33h-5.49Z"/><text class="cls-5" transform="translate(14.92 151.77)">HOUSE</text><path class="cls-1" d="M178.48,67.88a3.82,3.82,0,0,1-2-.57L103.07,22.63a3.9,3.9,0,0,1-1.87-3.32,9.51,9.51,0,1,0-19,0,3.89,3.89,0,0,1-1.86,3.32L6.94,67.31a3.89,3.89,0,1,1-4.05-6.64L74.57,17a17.28,17.28,0,0,1,34.26,0l71.68,43.64a3.89,3.89,0,0,1-2,7.21Z"/><path class="cls-2" d="M14.54,70c.11,0,2.4.24,6.12.24,15.54,0,56-4,65.89-44.9a.88.88,0,0,0-1.7-.42C72.93,74.09,15.31,68.35,14.73,68.29A.88.88,0,0,0,14.54,70Z"/><path class="cls-2" d="M21.11,64.17h.77c5.94,0,44.29-1.37,58.63-35.8a.88.88,0,0,0-1.62-.67c-15,36-57.29,34.73-57.71,34.71a.87.87,0,0,0-.91.84A.88.88,0,0,0,21.11,64.17Z"/><path class="cls-2" d="M27.65,58.31h.1c.28,0,28-3.21,46.64-26.84A.88.88,0,0,0,73,30.39c-18.14,23-45.18,26.15-45.45,26.18a.87.87,0,0,0,.09,1.74Z"/><path class="cls-2" d="M175.14,74.15c-.35.06-36.46,5.2-60.88-13-12-9-19.29-22.06-21.7-39a.43.43,0,0,1,0,0,.76.76,0,0,0-.06-.16.69.69,0,0,0-.07-.15l-.11-.12-.13-.12-.13-.06-.18-.06-.05,0h-.11s-.09,0-.13,0l-.06,0-.14.05-.17.08-.11.1a.74.74,0,0,0-.12.13l-.07.14a1.15,1.15,0,0,0-.06.17.08.08,0,0,1,0,0c-2.4,16.93-9.69,30-21.69,39C44.72,79.35,8.61,74.21,8.25,74.15A.87.87,0,0,0,8,75.88a94.85,94.85,0,0,0,12.47.73c13,0,33.77-2.18,49.72-14.07C81.38,54.2,88.59,42.35,91.7,27.29,94.81,42.35,102,54.2,113.22,62.54c15.95,11.89,36.68,14.07,49.71,14.07a94.48,94.48,0,0,0,12.47-.73.87.87,0,0,0,.74-1A.88.88,0,0,0,175.14,74.15Z"/><path class="cls-2" d="M162.74,70.27c3.71,0,6-.23,6.12-.24a.88.88,0,0,0-.19-1.74c-.58.06-58.19,5.82-70.12-43.34a.88.88,0,0,0-1.7.42C106.77,66.24,147.2,70.27,162.74,70.27Z"/><path class="cls-2" d="M161.52,64.18h.77a.88.88,0,0,0-.07-1.75c-.43,0-42.71,1.32-57.72-34.71a.87.87,0,1,0-1.61.67C117.23,62.81,155.58,64.18,161.52,64.18Z"/><path class="cls-2" d="M155.65,58.31h.09a.87.87,0,0,0,.09-1.74c-.27,0-27.28-3.12-45.45-26.18a.86.86,0,0,0-1.22-.15.88.88,0,0,0-.15,1.23C127.63,55.1,155.37,58.28,155.65,58.31Z"/><path class="cls-2" d="M172,158.36V75.76S101,84.72,91.7,22.15C85.48,82.73,11.43,75.76,11.43,75.76v82.6"/><text class="cls-6" transform="translate(56.68 84.18)">THE</text><path class="cls-4" d="M36,91.4h4.46v31.95H36Zm2.64,27.8H47.3c2.27,0,3.93-.44,5-1.3a4.49,4.49,0,0,0,1.56-3.65v-.06a6.47,6.47,0,0,0-.56-2.8,3.88,3.88,0,0,0-1.77-1.79,6.84,6.84,0,0,0-3.1-.62H38.65v-4H48.4a5.33,5.33,0,0,0,3.75-1.16,4.48,4.48,0,0,0,1.26-3.45A4.43,4.43,0,0,0,52,96.74a6.44,6.44,0,0,0-4.22-1.19H38.65V91.4h10a11.51,11.51,0,0,1,5.19,1,7.06,7.06,0,0,1,3.12,3,9.79,9.79,0,0,1,1,4.62,7.42,7.42,0,0,1-.64,3.08,6.31,6.31,0,0,1-1.94,2.46A7.34,7.34,0,0,1,52.12,107a7.13,7.13,0,0,1,3.34,1.37,7.3,7.3,0,0,1,2.15,2.71,8.33,8.33,0,0,1,.75,3.52v.07a9,9,0,0,1-1.15,4.57,7.66,7.66,0,0,1-3.27,3,10.86,10.86,0,0,1-5,1.08H38.65Z"/><path class="cls-4" d="M69.08,122.22a10,10,0,0,1-4-4.13,13.2,13.2,0,0,1-1.39-6.19v-9.05a13.17,13.17,0,0,1,1.39-6.19,10,10,0,0,1,4-4.13,12.61,12.61,0,0,1,11.78,0,10,10,0,0,1,3.94,4.13,13.17,13.17,0,0,1,1.4,6.19v9.05a13.2,13.2,0,0,1-1.4,6.19,10,10,0,0,1-3.94,4.13,12.61,12.61,0,0,1-11.78,0Zm9.37-3.85a6,6,0,0,0,2.33-2.53,8.29,8.29,0,0,0,.82-3.79v-9.36a8.32,8.32,0,0,0-.82-3.79,6,6,0,0,0-2.33-2.52,7.27,7.27,0,0,0-7,0,5.9,5.9,0,0,0-2.32,2.52,8.33,8.33,0,0,0-.83,3.79v9.36a8.3,8.3,0,0,0,.83,3.79,5.87,5.87,0,0,0,2.32,2.53,7.27,7.27,0,0,0,7,0Z"/><path class="cls-4" d="M97.25,122.22a10,10,0,0,1-4-4.13,13.2,13.2,0,0,1-1.39-6.19v-9.05a13.17,13.17,0,0,1,1.39-6.19,10,10,0,0,1,4-4.13,12.61,12.61,0,0,1,11.78,0A10.06,10.06,0,0,1,113,96.66a13.17,13.17,0,0,1,1.4,6.19v9.05a13.2,13.2,0,0,1-1.4,6.19,10.06,10.06,0,0,1-3.94,4.13,12.61,12.61,0,0,1-11.78,0Zm9.37-3.85a6,6,0,0,0,2.33-2.53,8.29,8.29,0,0,0,.82-3.79v-9.36A8.32,8.32,0,0,0,109,98.9a6,6,0,0,0-2.33-2.52,7.27,7.27,0,0,0-7,0,6,6,0,0,0-2.33,2.52,8.46,8.46,0,0,0-.82,3.79v9.36a8.43,8.43,0,0,0,.82,3.79,6,6,0,0,0,2.33,2.53,7.27,7.27,0,0,0,7,0Z"/><path class="cls-4" d="M121.18,91.4h4.48v31.95h-4.48Zm3.51,17.93L138.8,91.4h5.51L124,116.05Zm5.32-3,3.54-3.28,12.1,20.33h-5.49Z"/><text class="cls-5" transform="translate(14.92 152.77)">HOUSE</text></g></g></svg>